<svg width="734" height="517" viewBox="0 0 734 517" fill="none" xmlns="http://www.w3.org/2000/svg">
<rect width="248" height="517" rx="35.4286" fill="white"/>
<path d="M0 57H248V457H0L0 57Z" fill="#E0ECFB"/>
<line x1="85" y1="26.2286" x2="163" y2="26.2286" stroke="#C4C4C4" stroke-width="3.54286"/>
<ellipse cx="124" cy="485.5" rx="18" ry="17.5" fill="#C4C4C4"/>
<rect x="521" y="240" width="213" height="175" rx="12.4113" fill="white"/>
<path d="M535 259H722V398C722 398 665.014 398 628.5 398C591.986 398 535 398 535 398V259Z" fill="#E0ECFB"/>
<ellipse cx="628" cy="406.5" rx="6" ry="6.5" fill="#C4C4C4"/>
<line x1="608" y1="253.379" x2="635" y2="253.379" stroke="#AEAEAE" stroke-width="1.24113"/>
<rect x="206" y="117" width="310" height="228" rx="10" fill="#AEAEAE"/>
<rect x="223" y="133" width="276" height="194" fill="#E0ECFB"/>
<path d="M205.022 345.909C205.579 340.839 209.862 337 214.962 337H507.037C512.138 337 516.421 340.839 516.978 345.909L534 501H188L205.022 345.909Z" fill="#AEAEAE"/>
<path d="M222.519 358.465C222.793 355.925 224.936 354 227.49 354H494.51C497.064 354 499.207 355.925 499.481 358.465L505.404 413.465C505.722 416.421 503.406 419 500.433 419H221.567C218.594 419 216.278 416.421 216.596 413.465L222.519 358.465Z" fill="#969696"/>
<path d="M317 446H405L409 489H313L317 446Z" fill="#999999"/>
<path d="M188 501H534L531.459 514.553C531.193 515.972 529.954 517 528.51 517H193.49C192.046 517 190.807 515.972 190.541 514.553L188 501Z" fill="#969696"/>
<path d="M333 501H391V509C391 510.657 389.657 512 388 512H336C334.343 512 333 510.657 333 509V501Z" fill="#AEAEAE"/>
<path d="M369 209.882L380 200V308L369 294.235V209.882Z" fill="#184867"/>
<rect x="380" y="200" width="20" height="108" fill="#266C9A"/>
<path d="M345 181.719L356 169V308L345 290.284V181.719Z" fill="#184867"/>
<rect x="356" y="169" width="20" height="139" fill="#266C9A"/>
<path d="M322 167.183L333 153V308L322 288.245V167.183Z" fill="#11666A"/>
<rect x="333" y="153" width="20" height="155" fill="#259196"/>
<path d="M632 317.216L638 312V369L632 361.735V317.216Z" fill="#184867"/>
<rect x="638" y="312" width="10" height="57" fill="#266C9A"/>
<path d="M619 302.68L625 296V369L619 359.696V302.68Z" fill="#184867"/>
<rect x="625" y="296" width="11" height="73" fill="#266C9A"/>
<path d="M607 295.412L613 288V369L607 358.676V295.412Z" fill="#11666A"/>
<rect x="613" y="288" width="10" height="81" fill="#259196"/>
<path d="M134 193.294L153 176V365L134 340.912V193.294Z" fill="#184867"/>
<rect x="153" y="176" width="35" height="189" fill="#266C9A"/>
<path d="M92 145.144L111 123V365L92 334.157V145.144Z" fill="#184867"/>
<rect x="111" y="123" width="35" height="242" fill="#266C9A"/>
<path d="M52 119.706L71 95V365L52 330.588V119.706Z" fill="#11666A"/>
<rect x="71" y="95" width="35" height="270" fill="#259196"/>
</svg>
